<?xml version="1.0" encoding="UTF-8"?>
<svg xmlns="http://www.w3.org/2000/svg" width="238" height="54" viewBox="0 0 238 54" fill="none">
  <path d="M47.3194 1.17073C46.5145 0.414634 45.4657 0 44.3437 0C43.2216 0 42.1484 0.414634 41.3679 1.17073L14.2202 31.7073C12.5616 33.2683 12.5616 35.8049 14.2202 37.3659C15.0251 38.1219 16.074 38.5366 17.196 38.5366C18.318 38.5366 19.3912 38.1219 20.1717 37.3659L47.3194 6.85366C48.978 5.29268 48.978 2.73171 47.3194 1.17073Z" fill="#F5F6F1"></path>
  <path d="M44.3437 18.561C43.2216 18.561 42.1484 18.9756 41.3679 19.7317C40.563 20.4878 40.1239 21.4878 40.1239 22.561V41.3902C40.1239 43.6098 42.0265 45.3902 44.3437 45.3902C45.4657 45.3902 46.5389 44.9756 47.3194 44.2195C48.1243 43.4634 48.5634 42.4634 48.5634 41.3902V22.561C48.5634 20.3659 46.6608 18.561 44.3437 18.561Z" fill="#F5F6F1"></path>
  <path d="M4.34168 45.4146C6.73204 45.4146 8.68335 43.561 8.68335 41.3171V13.9024L13.8543 18.8293C14.6593 19.5854 15.7081 20 16.8301 20C17.9521 20 19.0253 19.5854 19.8059 18.8293C20.6108 18.0732 21.0498 17.0732 21.0498 16C21.0498 14.9268 20.6108 13.9268 19.8059 13.1707L7.95161 1.87805C7.14669 0.707317 5.80516 1.19192e-09 4.31729 1.19192e-09C4.2685 1.19192e-09 4.19533 1.19192e-09 4.21972 1.19192e-09C3.09771 1.19192e-09 2.02449 0.414634 1.24396 1.17073C0.439046 1.92683 0 2.92683 0 4V41.2927C0 43.561 1.95132 45.4146 4.34168 45.4146Z" fill="#F5F6F1"></path>
  <path d="M58.5152 27.439C61.1007 27.439 63.174 25.4634 63.174 23C63.174 20.561 61.0763 18.561 58.5152 18.561C55.9541 18.561 53.8564 20.5366 53.8564 23C53.8564 25.439 55.9297 27.439 58.5152 27.439Z" fill="#70E5FF"></path>
  <path d="M58.5152 36.4915C55.9541 36.4915 53.8564 38.4671 53.8564 40.9305C53.8564 43.3695 55.9541 45.3695 58.5152 45.3695C61.1007 45.3695 63.174 43.3939 63.174 40.9305C63.174 38.4915 61.0763 36.4915 58.5152 36.4915Z" fill="#70E5FF"></path>
  <path d="M72.317 45.2075C71.5696 45.2075 70.9966 45.0063 70.5979 44.6038C70.1993 44.1761 70 43.5723 70 42.7925V28.5283C70 27.7484 70.1993 27.1572 70.5979 26.7547C70.9966 26.3522 71.5572 26.1509 72.2797 26.1509C73.0022 26.1509 73.5628 26.3522 73.9614 26.7547C74.36 27.1572 74.5594 27.7484 74.5594 28.5283V31.283L74.1483 30.1509C74.6466 28.8931 75.4189 27.8994 76.4653 27.1698C77.5117 26.4403 78.7574 26.0755 80.2025 26.0755C81.6724 26.0755 82.8808 26.4277 83.8275 27.1321C84.7743 27.8365 85.4345 28.9182 85.8082 30.3774H85.285C85.7833 29.044 86.6055 28 87.7516 27.2453C88.8976 26.4654 90.2181 26.0755 91.713 26.0755C93.1082 26.0755 94.2543 26.3522 95.1512 26.9057C96.073 27.4591 96.7582 28.3019 97.2066 29.434C97.6551 30.5409 97.8793 31.9497 97.8793 33.6604V42.7925C97.8793 43.5723 97.6675 44.1761 97.244 44.6038C96.8454 45.0063 96.2723 45.2075 95.5249 45.2075C94.7775 45.2075 94.2044 45.0063 93.8058 44.6038C93.4072 44.1761 93.2079 43.5723 93.2079 42.7925V33.8491C93.2079 32.4403 92.9712 31.4088 92.4978 30.7547C92.0493 30.1006 91.277 29.7736 90.1807 29.7736C88.9599 29.7736 88.0007 30.2138 87.3031 31.0943C86.6055 31.9497 86.2567 33.1447 86.2567 34.6792V42.7925C86.2567 43.5723 86.0574 44.1761 85.6588 44.6038C85.2601 45.0063 84.6871 45.2075 83.9397 45.2075C83.1922 45.2075 82.6067 45.0063 82.1832 44.6038C81.7846 44.1761 81.5852 43.5723 81.5852 42.7925V33.8491C81.5852 32.4403 81.3486 31.4088 80.8752 30.7547C80.4267 30.1006 79.6668 29.7736 78.5955 29.7736C77.3747 29.7736 76.4155 30.2138 75.7179 31.0943C75.0203 31.9497 74.6715 33.1447 74.6715 34.6792V42.7925C74.6715 44.4025 73.8867 45.2075 72.317 45.2075Z" fill="white"></path>
  <path d="M108.715 45.283C107.395 45.283 106.211 45.0314 105.165 44.5283C104.144 44 103.334 43.2956 102.736 42.4151C102.163 41.5346 101.876 40.5409 101.876 39.434C101.876 38.0755 102.225 37.0063 102.923 36.2264C103.62 35.4214 104.754 34.8428 106.324 34.4906C107.893 34.1384 109.998 33.9623 112.639 33.9623H114.508V36.6792H112.677C111.132 36.6792 109.899 36.7547 108.977 36.9057C108.055 37.0566 107.395 37.3208 106.996 37.6981C106.623 38.0503 106.436 38.5535 106.436 39.2075C106.436 40.0377 106.722 40.717 107.295 41.2453C107.868 41.7736 108.666 42.0377 109.687 42.0377C110.509 42.0377 111.232 41.8491 111.855 41.4717C112.502 41.0692 113.013 40.5283 113.387 39.8491C113.761 39.1698 113.947 38.3899 113.947 37.5094V33.1698C113.947 31.9119 113.673 31.0063 113.125 30.4528C112.577 29.8994 111.655 29.6226 110.36 29.6226C109.637 29.6226 108.852 29.7107 108.005 29.8868C107.183 30.0629 106.311 30.3648 105.389 30.7925C104.916 31.0189 104.492 31.0818 104.119 30.9811C103.77 30.8805 103.496 30.6792 103.296 30.3774C103.097 30.0503 102.997 29.6981 102.997 29.3208C102.997 28.9434 103.097 28.5786 103.296 28.2264C103.496 27.8491 103.832 27.5723 104.306 27.3962C105.452 26.9182 106.548 26.5786 107.594 26.3774C108.666 26.1761 109.637 26.0755 110.509 26.0755C112.303 26.0755 113.773 26.3522 114.919 26.9057C116.09 27.4591 116.962 28.3019 117.535 29.434C118.108 30.5409 118.395 31.9748 118.395 33.7358V42.7925C118.395 43.5723 118.208 44.1761 117.834 44.6038C117.46 45.0063 116.925 45.2075 116.227 45.2075C115.529 45.2075 114.981 45.0063 114.583 44.6038C114.209 44.1761 114.022 43.5723 114.022 42.7925V40.9811H114.321C114.147 41.8616 113.798 42.6289 113.275 43.283C112.776 43.9119 112.141 44.4025 111.369 44.7547C110.596 45.1069 109.712 45.283 108.715 45.283Z" fill="white"></path>
  <path d="M125.528 45.2075C124.756 45.2075 124.158 45.0063 123.734 44.6038C123.336 44.1761 123.136 43.5723 123.136 42.7925V28.5283C123.136 27.7484 123.336 27.1572 123.734 26.7547C124.133 26.3522 124.693 26.1509 125.416 26.1509C126.138 26.1509 126.699 26.3522 127.098 26.7547C127.496 27.1572 127.696 27.7484 127.696 28.5283V30.9057H127.322C127.671 29.3962 128.356 28.2516 129.377 27.4717C130.399 26.6918 131.757 26.2264 133.451 26.0755C133.974 26.0252 134.385 26.1635 134.684 26.4906C135.008 26.7925 135.195 27.2704 135.245 27.9245C135.294 28.5535 135.145 29.0692 134.796 29.4717C134.472 29.8491 133.974 30.0755 133.301 30.1509L132.479 30.2264C130.959 30.3774 129.813 30.8553 129.041 31.6604C128.269 32.4403 127.882 33.5472 127.882 34.9811V42.7925C127.882 43.5723 127.683 44.1761 127.284 44.6038C126.886 45.0063 126.3 45.2075 125.528 45.2075Z" fill="white"></path>
  <path d="M140.088 45.2075C139.341 45.2075 138.768 45.0063 138.369 44.6038C137.97 44.1761 137.771 43.5723 137.771 42.7925V20.3774C137.771 19.5975 137.97 19.0063 138.369 18.6038C138.768 18.2013 139.341 18 140.088 18C140.836 18 141.409 18.2013 141.807 18.6038C142.231 19.0063 142.443 19.5975 142.443 20.3774V34.3019H142.517L148.684 27.7358C149.182 27.2327 149.618 26.8428 149.992 26.566C150.365 26.2893 150.876 26.1509 151.524 26.1509C152.172 26.1509 152.657 26.327 152.981 26.6792C153.33 27.0063 153.505 27.4088 153.505 27.8868C153.505 28.3648 153.28 28.8428 152.832 29.3208L146.329 36.2641V34.3019L153.467 42.0755C153.916 42.5535 154.115 43.044 154.065 43.5472C154.04 44.0252 153.841 44.4277 153.467 44.7547C153.093 45.0566 152.62 45.2075 152.047 45.2075C151.349 45.2075 150.789 45.0692 150.365 44.7924C149.967 44.5157 149.518 44.1006 149.02 43.5472L142.517 36.6792H142.443V42.7925C142.443 44.4025 141.658 45.2075 140.088 45.2075Z" fill="white"></path>
  <path d="M164.422 45.283C162.902 45.283 161.644 45.0063 160.647 44.4528C159.651 43.8742 158.903 43.0189 158.405 41.8868C157.932 40.7547 157.695 39.3459 157.695 37.6604V28.5283C157.695 27.7233 157.894 27.1321 158.293 26.7547C158.692 26.3522 159.265 26.1509 160.012 26.1509C160.76 26.1509 161.333 26.3522 161.731 26.7547C162.155 27.1321 162.367 27.7233 162.367 28.5283V37.7358C162.367 39.044 162.628 40.0126 163.151 40.6415C163.675 41.2704 164.509 41.5849 165.655 41.5849C166.901 41.5849 167.923 41.1572 168.72 40.3019C169.517 39.4214 169.916 38.2641 169.916 36.8302V28.5283C169.916 27.7233 170.115 27.1321 170.514 26.7547C170.912 26.3522 171.485 26.1509 172.233 26.1509C172.98 26.1509 173.553 26.3522 173.952 26.7547C174.375 27.1321 174.587 27.7233 174.587 28.5283V42.7925C174.587 44.4025 173.827 45.2075 172.307 45.2075C171.585 45.2075 171.024 45.0063 170.626 44.6038C170.227 44.1761 170.028 43.5723 170.028 42.7925V39.9245L170.551 41.0566C170.028 42.4151 169.231 43.4591 168.159 44.1887C167.113 44.9182 165.867 45.283 164.422 45.283Z" fill="white"></path>
  <path d="M181.766 52C181.019 52 180.446 51.7987 180.047 51.3962C179.649 50.9937 179.449 50.4025 179.449 49.6226V28.5283C179.449 27.7484 179.649 27.1572 180.047 26.7547C180.446 26.3522 181.006 26.1509 181.729 26.1509C182.476 26.1509 183.049 26.3522 183.448 26.7547C183.847 27.1572 184.046 27.7484 184.046 28.5283V31.4717L183.635 30.3396C184.009 29.0566 184.769 28.0252 185.915 27.2453C187.086 26.4654 188.443 26.0755 189.988 26.0755C191.583 26.0755 192.978 26.4654 194.174 27.2453C195.395 28.0252 196.341 29.1321 197.014 30.566C197.687 31.9748 198.023 33.673 198.023 35.6604C198.023 37.6226 197.687 39.3333 197.014 40.7925C196.341 42.2264 195.407 43.3333 194.211 44.1132C193.015 44.8931 191.608 45.283 189.988 45.283C188.468 45.283 187.135 44.9057 185.989 44.1509C184.843 43.3711 184.071 42.3648 183.672 41.1321H184.121V49.6226C184.121 50.4025 183.909 50.9937 183.485 51.3962C183.087 51.7987 182.514 52 181.766 52ZM188.68 41.6981C189.602 41.6981 190.412 41.4717 191.109 41.0189C191.807 40.566 192.343 39.8994 192.716 39.0189C193.115 38.1132 193.314 36.9937 193.314 35.6604C193.314 33.6478 192.891 32.1509 192.044 31.1698C191.196 30.1635 190.075 29.6604 188.68 29.6604C187.758 29.6604 186.949 29.8868 186.251 30.3396C185.553 30.7673 185.005 31.434 184.607 32.3396C184.233 33.2201 184.046 34.327 184.046 35.6604C184.046 37.6478 184.47 39.1572 185.317 40.1887C186.164 41.195 187.285 41.6981 188.68 41.6981Z" fill="white"></path>
  <path d="M208.473 45.283C206.953 45.283 205.695 45.0063 204.698 44.4528C203.701 43.8742 202.954 43.0189 202.456 41.8868C201.982 40.7547 201.746 39.3459 201.746 37.6604V28.5283C201.746 27.7233 201.945 27.1321 202.344 26.7547C202.742 26.3522 203.315 26.1509 204.063 26.1509C204.81 26.1509 205.383 26.3522 205.782 26.7547C206.205 27.1321 206.417 27.7233 206.417 28.5283V37.7358C206.417 39.044 206.679 40.0126 207.202 40.6415C207.725 41.2704 208.56 41.5849 209.706 41.5849C210.952 41.5849 211.973 41.1572 212.77 40.3019C213.568 39.4214 213.966 38.2641 213.966 36.8302V28.5283C213.966 27.7233 214.165 27.1321 214.564 26.7547C214.963 26.3522 215.536 26.1509 216.283 26.1509C217.031 26.1509 217.604 26.3522 218.002 26.7547C218.426 27.1321 218.638 27.7233 218.638 28.5283V42.7925C218.638 44.4025 217.878 45.2075 216.358 45.2075C215.635 45.2075 215.075 45.0063 214.676 44.6038C214.278 44.1761 214.078 43.5723 214.078 42.7925V39.9245L214.602 41.0566C214.078 42.4151 213.281 43.4591 212.21 44.1887C211.163 44.9182 209.918 45.283 208.473 45.283Z" fill="white"></path>
  <path d="M230.189 45.283C229.118 45.283 227.984 45.1698 226.788 44.9434C225.593 44.717 224.521 44.327 223.575 43.7736C223.176 43.522 222.889 43.2327 222.715 42.9057C222.565 42.5535 222.503 42.2138 222.528 41.8868C222.578 41.5346 222.703 41.2327 222.902 40.9811C223.126 40.7296 223.4 40.566 223.724 40.4906C224.073 40.4151 224.447 40.478 224.845 40.6792C225.842 41.1572 226.776 41.4969 227.648 41.6981C228.52 41.8742 229.38 41.9623 230.227 41.9623C231.423 41.9623 232.307 41.761 232.88 41.3585C233.478 40.9308 233.777 40.3774 233.777 39.6981C233.777 39.1195 233.578 38.6792 233.179 38.3774C232.805 38.0503 232.232 37.8113 231.46 37.6604L227.723 36.9434C226.178 36.6415 224.995 36.0755 224.172 35.2453C223.375 34.3899 222.977 33.2956 222.977 31.9623C222.977 30.7547 223.3 29.7107 223.948 28.8302C224.621 27.9497 225.543 27.2704 226.714 26.7925C227.885 26.3145 229.23 26.0755 230.75 26.0755C231.846 26.0755 232.868 26.2013 233.814 26.4528C234.786 26.6792 235.72 27.044 236.617 27.5472C236.991 27.7484 237.24 28.0126 237.365 28.3396C237.514 28.6667 237.552 29.0063 237.477 29.3585C237.402 29.6855 237.253 29.9874 237.028 30.2642C236.804 30.5157 236.518 30.6792 236.169 30.7547C235.845 30.805 235.471 30.7296 235.048 30.5283C234.275 30.1258 233.528 29.8365 232.805 29.6604C232.108 29.4843 231.435 29.3962 230.787 29.3962C229.566 29.3962 228.657 29.6101 228.059 30.0377C227.486 30.4654 227.2 31.0314 227.2 31.7358C227.2 32.2641 227.374 32.7044 227.723 33.0566C228.072 33.4088 228.607 33.6478 229.33 33.7736L233.067 34.4906C234.686 34.7925 235.907 35.3459 236.729 36.1509C237.576 36.956 238 38.0377 238 39.3962C238 41.2327 237.29 42.6792 235.87 43.7358C234.45 44.7673 232.556 45.283 230.189 45.283Z" fill="white"></path>
</svg>
