<svg width="894" height="174" viewBox="0 0 894 174" fill="none" xmlns="http://www.w3.org/2000/svg">
<path d="M45 126.998C45 126.998 45 100.402 45 47.2109C45 47.2109 47.6543 47.2109 52.9629 47.2109C52.9629 47.2109 52.9629 62.5039 52.9629 93.0898C52.9629 93.0898 65.2852 77.7969 89.9297 47.2109C89.9297 47.2109 93.2695 47.2109 99.9492 47.2109C99.9492 47.2109 89.4375 60.166 68.4141 86.0762C68.4141 86.0762 78.9258 99.7168 99.9492 126.998C99.9492 126.998 96.6094 126.998 89.9297 126.998C89.9297 126.998 81.0703 115.484 63.3516 92.457C63.3516 92.457 59.8887 96.6934 52.9629 105.166C52.9629 105.166 52.9629 112.443 52.9629 126.998C52.9629 126.998 50.3086 126.998 45 126.998Z" fill="white"/>
<path d="M105.035 126.998C105.035 126.998 116.443 100.402 139.26 47.2109C139.26 47.2109 142.248 47.2109 148.224 47.2109C148.224 47.2109 159.668 73.8066 182.554 126.998C182.554 126.998 179.636 126.998 173.801 126.998C173.801 126.998 169.951 118.033 162.252 100.104C162.252 100.104 149.859 100.104 125.074 100.104C125.074 100.104 121.189 109.068 113.42 126.998C113.42 126.998 110.625 126.998 105.035 126.998ZM128.133 92.8789C128.133 92.8789 138.469 92.8789 159.14 92.8789C159.14 92.8789 154.025 80.6797 143.795 56.2812C143.795 56.2812 138.574 68.4805 128.133 92.8789Z" fill="white"/>
<path d="M195.234 126.998C195.234 126.998 195.234 100.402 195.234 47.2109C195.234 47.2109 197.888 47.2109 203.197 47.2109C203.197 47.2109 203.197 71.3984 203.197 119.773C203.197 119.773 214.218 119.773 236.261 119.773C236.261 119.773 236.261 122.182 236.261 126.998C236.261 126.998 222.585 126.998 195.234 126.998Z" fill="white"/>
<path d="M248.361 126.998C248.361 126.998 248.361 100.402 248.361 47.2109C248.361 47.2109 251.015 47.2109 256.324 47.2109C256.324 47.2109 256.324 73.8066 256.324 126.998C256.324 126.998 253.669 126.998 248.361 126.998Z" fill="white"/>
<path d="M373.071 126.998C373.071 126.998 373.071 100.402 373.071 47.2109C373.071 47.2109 376.657 47.2109 383.829 47.2109C383.829 47.2109 398.735 69.2715 428.548 113.393C428.548 113.393 428.548 91.332 428.548 47.2109C428.548 47.2109 431.22 47.2109 436.563 47.2109C436.563 47.2109 436.563 73.8066 436.563 126.998C436.563 126.998 433.891 126.998 428.548 126.998C428.548 126.998 412.71 103.602 381.034 56.8086C381.034 56.8086 381.034 80.2051 381.034 126.998C381.034 126.998 378.38 126.998 373.071 126.998Z" fill="white"/>
<path d="M489.45 126.998C489.45 126.998 489.45 100.402 489.45 47.2109C489.45 47.2109 495.707 47.2109 508.223 47.2109C515.711 47.2109 521.828 47.7383 526.575 48.793C531.356 49.8125 535.68 51.5527 539.547 54.0137C545.207 57.5645 549.496 62.1699 552.414 67.8301C555.367 73.4902 556.844 79.9941 556.844 87.3418C556.844 94.9707 555.192 101.721 551.887 107.592C548.617 113.428 543.854 118.068 537.596 121.514C530.951 125.17 522.057 126.998 510.912 126.998H489.45ZM497.412 119.773H508.539C515.817 119.773 521.723 119.176 526.258 117.98C530.793 116.785 534.678 114.816 537.912 112.074C541.393 109.086 544.065 105.43 545.928 101.105C547.791 96.7812 548.723 92.0879 548.723 87.0254C548.723 80.9434 547.387 75.459 544.715 70.5723C542.043 65.6855 538.299 61.8887 533.483 59.1816C530.565 57.5293 527.137 56.334 523.2 55.5957C519.262 54.8223 514.375 54.4355 508.539 54.4355H497.412V119.773Z" fill="white"/>
<path d="M573.057 126.998C573.057 126.998 573.057 100.402 573.057 47.2109C573.057 47.2109 575.711 47.2109 581.02 47.2109C581.02 47.2109 581.02 73.8066 581.02 126.998C581.02 126.998 578.365 126.998 573.057 126.998Z" fill="white"/>
<path d="M627.976 90.1895C627.976 90.1895 646.047 90.1895 682.187 90.1895C681.66 99.6816 677.951 108.137 671.06 115.555C663.291 124.133 653.131 128.422 640.58 128.422C634.533 128.422 628.82 127.35 623.441 125.205C618.097 123.061 613.492 120.16 609.625 116.504C605.793 112.812 602.752 108.4 600.502 103.268C598.287 98.1348 597.18 92.6855 597.18 86.9199C597.18 81.2246 598.269 75.8457 600.449 70.7832C602.664 65.6855 605.652 61.3086 609.414 57.6523C613.176 53.9961 617.676 51.1133 622.914 49.0039C628.152 46.8594 633.689 45.7871 639.525 45.7871C648.244 45.7871 656.066 47.8789 662.992 52.0625C669.918 56.2109 674.699 61.6777 677.336 68.4629H668.371C665.629 63.6113 661.779 59.8496 656.822 57.1777C651.865 54.4707 646.31 53.1172 640.158 53.1172C633.654 53.1172 627.73 54.6113 622.387 57.5996C617.078 60.5527 612.894 64.6309 609.836 69.834C606.812 75.0371 605.301 80.8027 605.301 87.1309C605.301 91.8066 606.215 96.2363 608.043 100.42C609.871 104.604 612.332 108.207 615.426 111.23C618.519 114.254 622.228 116.645 626.553 118.402C630.877 120.16 635.447 121.039 640.263 121.039C650.072 121.039 658.176 117.734 664.574 111.125C668.758 106.73 671.43 102.16 672.59 97.4141H627.976V90.1895Z" fill="white"/>
<path d="M698.084 126.998C698.084 126.998 698.084 100.402 698.084 47.2109C698.084 47.2109 700.738 47.2109 706.047 47.2109C706.047 47.2109 706.047 73.8066 706.047 126.998C706.047 126.998 703.392 126.998 698.084 126.998Z" fill="white"/>
<path d="M736.445 126.998C736.445 126.998 736.445 102.811 736.445 54.4355C736.445 54.4355 730.363 54.4355 718.199 54.4355C718.199 54.4355 718.199 52.0273 718.199 47.2109C718.199 47.2109 733.035 47.2109 762.706 47.2109C762.706 47.2109 762.706 49.6191 762.706 54.4355C762.706 54.4355 756.624 54.4355 744.46 54.4355C744.46 54.4355 744.46 78.623 744.46 126.998C744.46 126.998 741.788 126.998 736.445 126.998Z" fill="white"/>
<path d="M762.519 126.998C762.519 126.998 773.927 100.402 796.743 47.2109C796.743 47.2109 799.732 47.2109 805.708 47.2109C805.708 47.2109 817.151 73.8066 840.038 126.998C840.038 126.998 837.12 126.998 831.284 126.998C831.284 126.998 827.435 118.033 819.735 100.104C819.735 100.104 807.343 100.104 782.558 100.104C782.558 100.104 778.673 109.068 770.903 126.998C770.903 126.998 768.109 126.998 762.519 126.998ZM785.616 92.8789C785.616 92.8789 795.952 92.8789 816.624 92.8789C816.624 92.8789 811.509 80.6797 801.278 56.2812C801.278 56.2812 796.058 68.4805 785.616 92.8789Z" fill="white"/>
<path d="M852.718 126.998C852.718 126.998 852.718 100.402 852.718 47.2109C852.718 47.2109 855.372 47.2109 860.681 47.2109C860.681 47.2109 860.681 71.3984 860.681 119.773C860.681 119.773 871.702 119.773 893.745 119.773C893.745 119.773 893.745 122.182 893.745 126.998C893.745 126.998 880.069 126.998 852.718 126.998Z" fill="white"/>
<path d="M4.34894 0.787109H318.905V30.8156H311.111V7.58451H6.74581V166.571H311.111V143.339H318.905V173.368H0V0.787109H4.34894Z" fill="white"/>
<path d="M321.982 45.7871C325.119 46.3592 328.204 47.2953 331.238 48.5954C336.38 50.8316 340.854 53.8479 344.607 57.6443C348.413 61.3886 351.395 65.861 353.658 71.1136C355.92 76.3141 357 81.7226 357 87.3391C357 93.0077 355.92 98.4682 353.658 103.617C351.395 108.817 348.361 113.29 344.556 117.086C340.751 120.83 336.226 123.847 330.981 126.083C328.05 127.331 325.067 128.215 321.982 128.787V121.09C323.936 120.622 325.89 119.998 327.792 119.166C332.009 117.294 335.66 114.85 338.745 111.729C341.831 108.661 344.299 105.021 346.099 100.756C347.95 96.544 348.824 92.0716 348.824 87.4431C348.824 82.7107 347.95 78.1862 346.099 73.9218C344.299 69.6054 341.831 65.913 338.694 62.7927C335.609 59.7245 331.906 57.2802 327.638 55.408C325.787 54.628 323.884 54.0039 321.982 53.5879V45.7871ZM307.07 128.787C304.036 128.215 301.053 127.331 298.122 126.083C292.877 123.847 288.301 120.83 284.495 117.034C280.69 113.29 277.656 108.817 275.394 103.617C273.131 98.4162 272 93.0077 272 87.3391C272 79.6424 273.903 72.5697 277.708 66.1211C281.564 59.6724 286.758 54.576 293.391 50.8316C297.659 48.3874 302.236 46.7232 307.07 45.8911V53.4318C303.676 54.2119 300.385 55.512 297.248 57.3842C292.054 60.5565 287.889 64.8209 284.804 70.1775C281.719 75.482 280.176 81.2025 280.176 87.3391C280.176 93.5277 281.719 99.3003 284.804 104.605C287.941 109.961 292.106 114.174 297.402 117.294C300.488 119.062 303.676 120.362 307.07 121.09V128.787Z" fill="white"/>
</svg>
