<svg width="894" height="173" viewBox="0 0 894 173" fill="none" xmlns="http://www.w3.org/2000/svg">
<path d="M45 126.211C45 126.211 45 99.6152 45 46.4238C45 46.4238 47.6543 46.4238 52.9629 46.4238C52.9629 46.4238 52.9629 61.7168 52.9629 92.3027C52.9629 92.3027 65.2852 77.0098 89.9297 46.4238C89.9297 46.4238 93.2695 46.4238 99.9492 46.4238C99.9492 46.4238 89.4375 59.3789 68.4141 85.2891C68.4141 85.2891 78.9258 98.9297 99.9492 126.211C99.9492 126.211 96.6094 126.211 89.9297 126.211C89.9297 126.211 81.0703 114.697 63.3516 91.6699C63.3516 91.6699 59.8887 95.9062 52.9629 104.379C52.9629 104.379 52.9629 111.656 52.9629 126.211C52.9629 126.211 50.3086 126.211 45 126.211Z" fill="black"/>
<path d="M105.035 126.211C105.035 126.211 116.443 99.6152 139.26 46.4238C139.26 46.4238 142.248 46.4238 148.224 46.4238C148.224 46.4238 159.668 73.0195 182.554 126.211C182.554 126.211 179.636 126.211 173.801 126.211C173.801 126.211 169.951 117.246 162.252 99.3164C162.252 99.3164 149.859 99.3164 125.074 99.3164C125.074 99.3164 121.189 108.281 113.42 126.211C113.42 126.211 110.625 126.211 105.035 126.211ZM128.133 92.0918C128.133 92.0918 138.469 92.0918 159.14 92.0918C159.14 92.0918 154.025 79.8926 143.795 55.4941C143.795 55.4941 138.574 67.6934 128.133 92.0918Z" fill="black"/>
<path d="M195.234 126.211C195.234 126.211 195.234 99.6152 195.234 46.4238C195.234 46.4238 197.888 46.4238 203.197 46.4238C203.197 46.4238 203.197 70.6113 203.197 118.986C203.197 118.986 214.218 118.986 236.261 118.986C236.261 118.986 236.261 121.395 236.261 126.211C236.261 126.211 222.585 126.211 195.234 126.211Z" fill="black"/>
<path d="M248.361 126.211C248.361 126.211 248.361 99.6152 248.361 46.4238C248.361 46.4238 251.015 46.4238 256.324 46.4238C256.324 46.4238 256.324 73.0195 256.324 126.211C256.324 126.211 253.669 126.211 248.361 126.211Z" fill="black"/>
<path d="M373.071 126.211C373.071 126.211 373.071 99.6152 373.071 46.4238C373.071 46.4238 376.657 46.4238 383.829 46.4238C383.829 46.4238 398.735 68.4844 428.548 112.605C428.548 112.605 428.548 90.5449 428.548 46.4238C428.548 46.4238 431.22 46.4238 436.563 46.4238C436.563 46.4238 436.563 73.0195 436.563 126.211C436.563 126.211 433.891 126.211 428.548 126.211C428.548 126.211 412.71 102.814 381.034 56.0215C381.034 56.0215 381.034 79.418 381.034 126.211C381.034 126.211 378.38 126.211 373.071 126.211Z" fill="black"/>
<path d="M489.45 126.211C489.45 126.211 489.45 99.6152 489.45 46.4238C489.45 46.4238 495.707 46.4238 508.223 46.4238C515.711 46.4238 521.828 46.9512 526.575 48.0059C531.356 49.0254 535.68 50.7656 539.547 53.2266C545.207 56.7773 549.496 61.3828 552.414 67.043C555.367 72.7031 556.844 79.207 556.844 86.5547C556.844 94.1836 555.192 100.934 551.887 106.805C548.617 112.641 543.854 117.281 537.596 120.727C530.951 124.383 522.057 126.211 510.912 126.211H489.45ZM497.412 118.986H508.539C515.817 118.986 521.723 118.389 526.258 117.193C530.793 115.998 534.678 114.029 537.912 111.287C541.393 108.299 544.065 104.643 545.928 100.318C547.791 95.9941 548.723 91.3008 548.723 86.2383C548.723 80.1562 547.387 74.6719 544.715 69.7852C542.043 64.8984 538.299 61.1016 533.483 58.3945C530.565 56.7422 527.137 55.5469 523.2 54.8086C519.262 54.0352 514.375 53.6484 508.539 53.6484H497.412V118.986Z" fill="black"/>
<path d="M573.057 126.211C573.057 126.211 573.057 99.6152 573.057 46.4238C573.057 46.4238 575.711 46.4238 581.02 46.4238C581.02 46.4238 581.02 73.0195 581.02 126.211C581.02 126.211 578.365 126.211 573.057 126.211Z" fill="black"/>
<path d="M627.976 89.4023C627.976 89.4023 646.047 89.4023 682.187 89.4023C681.66 98.8945 677.951 107.35 671.06 114.768C663.291 123.346 653.131 127.635 640.58 127.635C634.533 127.635 628.82 126.562 623.441 124.418C618.097 122.273 613.492 119.373 609.625 115.717C605.793 112.025 602.752 107.613 600.502 102.48C598.287 97.3477 597.18 91.8984 597.18 86.1328C597.18 80.4375 598.269 75.0586 600.449 69.9961C602.664 64.8984 605.652 60.5215 609.414 56.8652C613.176 53.209 617.676 50.3262 622.914 48.2168C628.152 46.0723 633.689 45 639.525 45C648.244 45 656.066 47.0918 662.992 51.2754C669.918 55.4238 674.699 60.8906 677.336 67.6758H668.371C665.629 62.8242 661.779 59.0625 656.822 56.3906C651.865 53.6836 646.31 52.3301 640.158 52.3301C633.654 52.3301 627.73 53.8242 622.387 56.8125C617.078 59.7656 612.894 63.8438 609.836 69.0469C606.812 74.25 605.301 80.0156 605.301 86.3438C605.301 91.0195 606.215 95.4492 608.043 99.6328C609.871 103.816 612.332 107.42 615.426 110.443C618.519 113.467 622.228 115.857 626.553 117.615C630.877 119.373 635.447 120.252 640.263 120.252C650.072 120.252 658.176 116.947 664.574 110.338C668.758 105.943 671.43 101.373 672.59 96.627H627.976V89.4023Z" fill="black"/>
<path d="M698.084 126.211C698.084 126.211 698.084 99.6152 698.084 46.4238C698.084 46.4238 700.738 46.4238 706.047 46.4238C706.047 46.4238 706.047 73.0195 706.047 126.211C706.047 126.211 703.392 126.211 698.084 126.211Z" fill="black"/>
<path d="M736.445 126.211C736.445 126.211 736.445 102.023 736.445 53.6484C736.445 53.6484 730.363 53.6484 718.199 53.6484C718.199 53.6484 718.199 51.2402 718.199 46.4238C718.199 46.4238 733.035 46.4238 762.706 46.4238C762.706 46.4238 762.706 48.832 762.706 53.6484C762.706 53.6484 756.624 53.6484 744.46 53.6484C744.46 53.6484 744.46 77.8359 744.46 126.211C744.46 126.211 741.788 126.211 736.445 126.211Z" fill="black"/>
<path d="M762.519 126.211C762.519 126.211 773.927 99.6152 796.743 46.4238C796.743 46.4238 799.732 46.4238 805.708 46.4238C805.708 46.4238 817.151 73.0195 840.038 126.211C840.038 126.211 837.12 126.211 831.284 126.211C831.284 126.211 827.435 117.246 819.735 99.3164C819.735 99.3164 807.343 99.3164 782.558 99.3164C782.558 99.3164 778.673 108.281 770.903 126.211C770.903 126.211 768.109 126.211 762.519 126.211ZM785.616 92.0918C785.616 92.0918 795.952 92.0918 816.624 92.0918C816.624 92.0918 811.509 79.8926 801.278 55.4941C801.278 55.4941 796.058 67.6934 785.616 92.0918Z" fill="black"/>
<path d="M852.718 126.211C852.718 126.211 852.718 99.6152 852.718 46.4238C852.718 46.4238 855.372 46.4238 860.681 46.4238C860.681 46.4238 860.681 70.6113 860.681 118.986C860.681 118.986 871.702 118.986 893.745 118.986C893.745 118.986 893.745 121.395 893.745 126.211C893.745 126.211 880.069 126.211 852.718 126.211Z" fill="black"/>
<path d="M4.34894 0H318.905V30.0285H311.111V6.79741H6.74581V165.783H311.111V142.552H318.905V172.581H0V0H4.34894Z" fill="black"/>
<path d="M321.982 45C325.119 45.5721 328.204 46.5081 331.238 47.8083C336.38 50.0445 340.854 53.0608 344.607 56.8571C348.413 60.6015 351.395 65.0739 353.658 70.3264C355.92 75.5269 357 80.9355 357 86.552C357 92.2206 355.92 97.6811 353.658 102.83C351.395 108.03 348.361 112.503 344.556 116.299C340.751 120.043 336.226 123.06 330.981 125.296C328.05 126.544 325.067 127.428 321.982 128V120.303C323.936 119.835 325.89 119.211 327.792 118.379C332.009 116.507 335.66 114.063 338.745 110.942C341.831 107.874 344.299 104.234 346.099 99.9693C347.95 95.7569 348.824 91.2845 348.824 86.656C348.824 81.9236 347.95 77.3991 346.099 73.1347C344.299 68.8183 341.831 65.1259 338.694 62.0056C335.609 58.9373 331.906 56.4931 327.638 54.6209C325.787 53.8409 323.884 53.2168 321.982 52.8008V45ZM307.07 128C304.036 127.428 301.053 126.544 298.122 125.296C292.877 123.06 288.301 120.043 284.495 116.247C280.69 112.503 277.656 108.03 275.394 102.83C273.131 97.6291 272 92.2206 272 86.552C272 78.8553 273.903 71.7826 277.708 65.334C281.564 58.8853 286.758 53.7888 293.391 50.0445C297.659 47.6003 302.236 45.9361 307.07 45.104V52.6447C303.676 53.4248 300.385 54.7249 297.248 56.5971C292.054 59.7694 287.889 64.0338 284.804 69.3904C281.719 74.6949 280.176 80.4154 280.176 86.552C280.176 92.7406 281.719 98.5132 284.804 103.818C287.941 109.174 292.106 113.387 297.402 116.507C300.488 118.275 303.676 119.575 307.07 120.303V128Z" fill="black"/>
</svg>
